<svg xmlns="http://www.w3.org/2000/svg" width="500" height="129"><g fill="#FFF" fill-rule="nonzero"><path d="M26.696 60.576c0 7.192-5.438 10.163-12.995 10.163-5.08 0-9.983-1.664-13.263-3.823l4.23-6.835c2.288 1.575 6.29 3.15 9.212 3.15 3.1 0 4.09-.544 4.09-2.022 0-1.168-1.127-1.89-5.348-2.881C5.024 56.575 1.38 54.505 1.38 48.214c0-5.933 4.813-9.935 12.41-9.935 5.35 0 9.213 1.307 12.541 3.645l-4.229 6.834c-2.784-1.891-5.576-2.97-8.766-2.97-2.605 0-3.239.811-3.239 1.931 0 1.169 1.129 1.705 5.17 2.654 7.923 1.883 11.43 4.31 11.43 10.203m27.548-14.204h-8.807v23.872h-8.725V46.372h-8.807v-7.598h26.34v7.598Zm13.71 11.42-.585-2.07c-1.128-4.05-1.615-5.754-2.021-7.865-.406 2.11-.9 3.864-2.021 7.865l-.584 2.07h5.21Zm13.263 12.452h-9.44l-1.705-5.528h-9.44l-1.704 5.528h-9.351l11.42-31.47h8.807l11.413 31.47Zm30.3 0h-7.102l-7.509-10.39c-1.396-1.932-4.09-5.974-4.902-7.37.227 1.396.268 5.576.268 8.133v9.618h-8.36V38.766h7.686l6.924 9.302c1.436 1.932 4.229 6.112 4.902 7.419-.227-1.396-.268-5.576-.268-8.133v-8.588h8.36v31.478Zm21.94-15.78c0-5.795-1.843-8.23-7.281-8.23h-2.16v16.542h1.892c5.43 0 7.549-2.062 7.549-8.312m8.945-.138c0 11.827-5.845 15.918-16.997 15.918h-10.203v-31.47h11.015c9.886 0 16.185 3.726 16.185 15.552M73.4 93.515c0-5.666-2.07-8.677-5.576-8.677-3.507 0-5.487 2.922-5.487 8.587 0 5.666 2.07 8.677 5.576 8.677 3.506-.008 5.487-2.93 5.487-8.587m9.034-.09c0 10.48-6.071 16.275-14.61 16.275-8.54 0-14.521-5.706-14.521-16.185 0-10.48 6.071-16.275 14.61-16.275s14.521 5.706 14.521 16.185m30.698 2.33c0 9.984-5.982 13.937-13.888 13.937-7.914 0-13.71-3.953-13.71-13.937V77.727h8.905v18.028c0 3.864 1.526 6.25 4.943 6.25s4.854-2.386 4.854-6.25V77.727h8.896v18.028Zm29.448-10.422h-8.815v23.872h-8.717V85.333h-8.815v-7.598h26.347v7.598ZM205.049 34.05c.357-.292.763-.592 1.201-.909a3.954 3.954 0 0 0-.544-.673c-.398.365-.747.722-1.055 1.063.162.154.292.333.398.52m-.698-.772c.235-.406.495-.836.77-1.282a3.879 3.879 0 0 0-.6-.325c-.21.47-.406.95-.568 1.388.138.057.276.138.398.22m36.274 33.514c-1.307 12.37-5.179 22.622-9.716 30.795-4.44.025-8.799-4.107-12.808-5.227-4.66-1.59-8.085 2.248-11.98 3.726-6.13 2.76-10.326-3.645-16.113-3.929-5.252.016-9.7 5.568-15.008 5.576-4.919-8.595-8.831-19.01-9.894-31.16-.187-2.168-.285-5.617-.285-10.236 0-6.566.195-13.628.276-16.469h18.531v-1.396h-.008v-1.485h1.68v1.477l14.197-1.664a3.857 3.857 0 0 0 3.514 2.28 3.852 3.852 0 0 0 3.515-2.28l13.385 1.575.828.097v-1.485h1.77v2.922h.007v.008l18.109-.008c.016.3.04.811.073 1.485.227 4.765.714 17.922-.073 25.398m-16.437 41.047c-2.272-1.015-6.047-3.076-8.725-2.955-3.637.455-6.461 2.963-9.749 4.132-4.261 1.891-7.97-1.185-11.51-2.841-3.254-2.021-9.188-.097-12.37 1.696a88.597 88.597 0 0 1-3.563-4.894c3.41-.714 7.11-4.132 10.52-4.586 4.618-.333 7.597 2.816 11.777 4.164 2.581.982 4.87-.17 6.9-.982 3.27-1.997 7.207-4.465 11.306-2.776 2.638.673 6.064 3.644 8.978 4.018a84.142 84.142 0 0 1-3.564 5.024m-21.363 18.945c-1.023-.17-8.79-5.033-17.038-14.205.812-.349 2.46-1.201 3.15-1.331 3.725-.357 6.68 2.013 9.813 3.523 3.62 2.216 7.97.406 10.966-1.624 2.045-1.08 4.294-2.37 6.834-2.029.747.162 2.833 1.274 3.54 1.656-8.613 9.554-16.543 13.929-17.265 14.01M170.26 35.544l6.59-5.236 8.426 1.616v1.225l.016 1.145.016.95v.3h-2.84.008-12.216Zm2.735-12.175 12.281 4.87v2.686l-5.763-1.006-3.028-.528.309.528-.309-.528-3.49-6.022Zm-.325-.569 1.08-.268 7.102-1.769 4.432 2.955v3.263l-8.693-3.353-2.841-1.096-1.08.268Zm9.546-7.808 5.568 5.52.747.746c-1.818.04-3.255.674-3.255.674v.592l-2.11-1.42-2.346-1.583-.942-6.85 2.338 2.32Zm5.844-1.42.398.064-.398-.065 1.656 2.687.195.317.008 4.691-1.137-1.12-7.686-7.614 6.964 1.04Zm2.28-7.93 1.097 2.889 2.378 6.274.016 3.198c-1.818-1.542-2.84-1.623-2.84-1.623l-.074-.016-.032-.008-2.184-3.742 1.64-6.973Zm6.503 3.498.381.243.584.373.114 1.632.333 4.667c-1.802-1.81-3.141-1.867-3.377-1.867l-1.81-4.423-.665-1.672-.966-2.42 5.406 3.467Zm4.228 22.76c.276.446.544.884.78 1.29.138-.081.276-.138.422-.195-.17-.446-.357-.917-.568-1.396-.601-1.331-1.372-2.646-2.265-3.304l-.024-14.196s1.915 1.16 3.149 3.239v15.576c.146-.033.292-.049.446-.049.195 0 .382.033.569.073V17.5c1.225-2.183 3.246-3.401 3.246-3.401l-.016 14.205c-.909.673-1.688 2.02-2.289 3.368.211.09.414.203.6.325.804-1.275 1.762-2.638 2.72-3.547V17.256c1.98-1.996 3.4-1.996 3.4-1.996l.074 14.294c-2.33.381-4.237 1.655-5.617 2.922.203.203.39.43.544.673 1.761-1.258 4.042-2.556 6.096-2.694l-.049-11.47c1.826-1.534 2.84-1.623 2.84-1.623l.066 14.148c-3.417-.284-6.559.868-8.758 2.02-.48.252-.91.504-1.299.74.04.089.073.186.097.284.414-.179.877-.374 1.388-.569 2.825-1.095 6.835-2.24 9.586-1.315l-.04-10.64c1.834.04 3.125.527 3.125.527v14.066c-3.92-2.191-8.937-2.086-12.468-1.68-.527.065-1.022.122-1.477.195 0 .024.008.057.008.081a2.354 2.354 0 0 1-4.708 0c0-.04.008-.073.008-.113-.454-.065-.965-.13-1.493-.187-3.515-.382-8.401-.438-12.232 1.704V22.557s1.29-.487 3.125-.528l-.04 10.641c2.678-.9 6.558.163 9.374 1.234.512.195.974.382 1.404.56a1.4 1.4 0 0 1 .13-.3 20.77 20.77 0 0 0-1.315-.73c-2.191-1.12-5.243-2.208-8.571-1.932l.065-14.148s1.023.09 2.84 1.623l-.048 11.47c1.989.137 4.197 1.363 5.942 2.58.438.309.844.617 1.217.902.122-.187.284-.358.455-.496-.317-.34-.674-.706-1.072-1.063-1.371-1.234-3.23-2.451-5.503-2.825l.073-14.293s1.42 0 3.401 1.996v11.194c.942.892 1.875 2.207 2.662 3.457m-2.28-23.498 3.75-5.39v.082l-.017 13.003a7.812 7.812 0 0 0-2.086-2.378 6.407 6.407 0 0 0-.462-.333c-.422-.284-.707-.414-.707-.414l-.495-4.286v-.284h.017Zm8.36-.04v.332l-.39 4.278s-2.02.933-3.246 3.117l-.017-12.98 3.653 5.252Zm.982 1.42.609-.39.34-.219 5.537-3.547-3.426 8.571c-.097 0-1.501-.065-3.417 1.867l.357-6.282Zm9.188 2.857-2.167 3.71-.105.024s-1.015.08-2.841 1.623l.016-3.198 3.442-9.058 1.655 6.899Zm7.679-.17-8.88 8.798.008-4.691 1.85-3.004L225 12.468Zm-.024 7.215-.918.617-3.295 2.224v-.592l-.057-.025a7.529 7.529 0 0 0-.795-.267 4.575 4.575 0 0 0-.422-.106l-.09-.024a5.348 5.348 0 0 0-.414-.081c-.056-.009-.105-.025-.17-.033-.138-.024-.284-.04-.43-.065-.065-.008-.138-.024-.203-.024a8.978 8.978 0 0 0-.682-.049l8.482-8.409-1.006 6.834Zm7.11 2.939-11.315 4.359v-3.263l4.424-2.947 6.891 1.85Zm-2.898 6.826-8.425 1.477V28.24l12.062-4.781-3.637 5.99Zm6.38 6.096h-14.83v-.3l.033-2.087v-1.225l8.393-1.607 6.404 5.219Zm6.534 5.844c-.048-1.136-.089-1.818-.089-1.85l-.057-1.064h-18.044v-1.493h4.262l1.688.024 9.66-.033-1.714-1.428-7.207-5.723 4.724-7.784-6.461-1.737-2.46-.657 1.323-9.018-9.099 1.437-2.224-9.23-7.89 5.05L203.58.778 202.97 0l-5.494 7.89-7.898-5.05-2.175 9.238-9.197-1.388 1.242 8.993-8.912 2.224 4.626 7.98-7.143 5.673-1.647 1.396 13.823.04h2.037v1.486h-18.474l-.04 1.242c-.082 2.776-.276 9.943-.276 16.623 0 4.668.097 8.15.284 10.358 3.514 40.073 37.337 61.485 39.074 61.485 1.973 0 34.822-19.684 39.221-61.242.78-7.46.3-20.706.081-25.56m-29.61 28.97-.828 2.377-2.524.05 2.013 1.525-.73 2.41 2.069-1.436 2.07 1.437-.73-2.41 2.012-1.527-2.516-.049-.836-2.378Zm14.334-12.671-3.555.811-1.583-3.287-1.582 3.287-3.556-.811 1.583 3.287-2.849 2.273 3.555.811v3.645l2.85-2.265 2.848 2.265v-3.645l3.556-.811-2.85-2.273 1.583-3.287Zm-18.628 22.207-3.555.804-1.583-3.28-1.583 3.28-3.555-.804 1.575 3.288-2.85 2.273 3.548.811v3.645l2.849-2.273 2.849 2.273v-3.645l3.555-.811-2.849-2.273 1.6-3.288Zm-18.88-17.654-3.555.812-1.583-3.28-1.583 3.28-3.555-.812 1.575 3.288-2.85 2.272 3.556.812v3.644l2.85-2.272 2.848 2.272v-3.644l3.555-.812-2.849-2.272 1.591-3.288Zm10.593-6.615v3.644l2.849-2.272 2.849 2.272v-3.644l3.555-.812-2.85-2.272 1.584-3.288-3.555.812-1.583-3.287-1.583 3.287-3.555-.812 1.583 3.288-2.85 2.272 3.556.812Zm56.558 11.372V54.878l3.434-.195c4.318-.243 8.953 1.819 8.953 6.575 0 4.66-4.091 6.526-8.117 6.128l-4.27-.39Zm-4.975-2.987c0 2.256.292 5.844-2.16 6.777v.146h8.077c3.71 0 7.605.147 11.063-1.526 3.295-1.566 5.901-4.805 5.901-8.587 0-4.814-3.588-7.76-8.028-8.693 2.817-1.226 4.927-3.101 4.927-6.388 0-4.375-3.79-7.119-10.316-7.119h-11.632v.146c2.5.934 2.16 4.513 2.16 6.73V64.01h.008Zm4.975-12.379v-9.618l3.287-.349c2.947-.3 6.088 1.47 6.088 4.862 0 4.026-4.57 5.105-7.76 5.105h-1.615Zm37.646-10.3c7.76 0 12.322 6.908 12.322 14.067 0 7.297-4.765 12.735-12.224 12.735-7.711 0-12.565-7.053-12.565-13.912-.008-7.403 4.854-12.89 12.467-12.89Zm.341-3.547c-10.308-.243-18.368 7.565-18.368 16.875 0 10.049 8.157 17.03 17.881 17.03 9.773 0 18.028-7.273 18.028-17.273-.008-8.823-7.232-16.68-17.54-16.632Zm24.586 26.778c0 2.751-.048 4.707 2.549 6.233v.147h-8.701v-.147c2.597-1.526 2.597-3.482 2.597-6.233V44.976c0-2.752 0-4.716-2.549-6.185v-.147h7.184v.05c.195.592.39.835.738 1.225l.682.982 17.914 22.679V44.976c0-2.752.049-4.716-2.54-6.185v-.147h8.652v.147c-2.557 1.477-2.557 3.433-2.557 6.185v27.54c-3.498-1.185-5.016-2.8-7.175-5.6L319.05 45.56v19.002h-.008Zm35.528-21.86c1.477-.348 2.946-.543 4.415-.543 8.198 0 13.004 4.326 13.004 12.906 0 8.49-6.518 12.313-13.832 12.313-1.225 0-2.402-.097-3.58-.34V42.702h-.007Zm-4.968 21.178c0 2.898.292 5.251-2.159 6.924v.146h11.745c10.99 0 18.36-6.778 18.36-16.445 0-9.773-6.931-15.86-18.116-15.86h-11.989v.146c2.5.738 2.16 4.318 2.16 6.582V63.88Zm-77.045 42.427c-2.167 2.857-6.218 4.042-9.676 4.042-3.254 0-6.704-1.039-8.904-3.393-2.589-2.849-2.492-6.136-2.492-9.675V84.172c0-2.208.341-5.787-2.159-6.72v-.147h9.31v.146c-2.467.934-2.175 4.513-2.175 6.721v13.109c0 6.534 2.76 9.578 7.84 9.578 2.769 0 5.577-1.128 7.209-3.442 1.087-1.469 1.039-2.695 1.039-4.464v-14.78c0-2.209.292-5.788-2.168-6.722v-.146h9.31l.05.146c-2.5.934-2.209 4.513-2.209 6.778v18.506c0 2.208-.292 5.796 2.208 6.73v.145h-7.183v-3.303Zm14.83-3.076c0 2.751-.05 4.707 2.54 6.233v.146h-8.701v-.146c2.605-1.518 2.605-3.482 2.605-6.233V83.636c0-2.743 0-4.707-2.557-6.185v-.146h7.184v.049c.195.592.39.836.738 1.226l.682.982 17.922 22.686V83.636c0-2.743.049-4.707-2.548-6.185v-.146h8.652v.146c-2.557 1.47-2.557 3.434-2.557 6.185v27.55c-3.498-1.178-5.016-2.801-7.167-5.602L287.386 84.23v19.002Zm30.56-19.002c0-2.257.34-5.844-2.16-6.778v-.146h9.294v.146c-2.451.934-2.159 4.562-2.159 6.778v18.506c0 2.208-.292 5.796 2.16 6.73v.145h-9.295v-.146c2.452-.884 2.16-4.513 2.16-6.729V84.23Zm31.672 1.964c1.323-3.482 2.987-7.508-.05-8.734v-.146h7.298l-12.963 33.783c-3.441-2.265-4.578-2.663-6.006-6.542l-7.411-20.082c-.925-2.5-1.664-5.349-3.807-7.013v-.146h7.135l-.049.593c0 1.08.934 3.482 1.331 4.562l7.825 21.355 6.697-17.63Zm15.99 19.294 6.234.593c3.238.292 6.631-.74 9.082-2.898h.146l-2.207 6.428h-20.439v-.146c2.5-.884 2.208-4.52 2.208-6.729V84.213c0-2.257.292-5.844-2.208-6.77v-.154H374.1c.836 0 1.672.105 2.305-.244h.146v5.747h-.146c-1.518-1.77-3.53-1.964-5.795-1.964-1.721 0-3.434.049-5.008.34V90.3h5.844c.779 0 1.566 0 2.159-.292h.146v5.22h-.146c-.787-1.43-2.85-1.372-4.367-1.372h-3.636v11.631h.008Zm27.849-28.206c6.59 0 10.146 3.45 10.146 7.914 0 4.326-3.758 7.71-7.784 8.636l7.053 8.888c2.054 2.549 5.155 5.106 7.947 6.875h-4.513c-2.606 0-4.213-.641-5.674-2.451l-5.99-7.41-4.53-6.925c3.937-.584 8.523-2.402 8.523-7.02 0-3.54-3.052-5.601-6.355-5.447-1.137.049-2.216.195-3.352.39v22.013c0 2.264-.3 5.844 2.215 6.728v.147h-9.35v-.147c2.5-.884 2.159-4.513 2.159-6.728V84.237c0-2.256.34-5.844-2.16-6.778v-.146l11.665-.032Zm36.761 5.885c-1.9-1.957-4.935-3.085-7.687-3.085-2.792 0-6.323 1.08-6.323 4.456 0 6.705 16.835 6.607 16.835 15.658 0 5.235-5.455 10.154-13.109 10.154-2.995 0-5.966-.446-8.75-1.477l-1.42-6.137c2.881 2.5 6.883 4.067 10.706 4.067 2.8 0 7.013-1.664 7.013-5.09 0-7.637-16.835-6.266-16.835-16.639 0-6.177 6.29-8.547 12.273-8.547 2.451 0 4.951.34 7.289 1.088v5.552h.008Zm6.015 1.063c0-2.257.34-5.844-2.16-6.778v-.146h9.295v.146c-2.452.934-2.16 4.562-2.16 6.778v18.506c0 2.208-.292 5.796 2.16 6.73v.145h-9.294v-.146c2.451-.884 2.159-4.513 2.159-6.729V84.23Z"/><path d="M458.539 103.214c0 2.792-.049 4.708 2.549 6.234v.146h-9.684v-.146c2.452-.933 2.16-4.513 2.16-6.72v-21.9h-4.319c-2.11 0-4.318.544-5.844 1.964h-.146l1.72-5.852h.147c.592.243 1.225.243 1.859.34h19.504c.836 0 1.616-.048 2.257-.34h.146l-1.575 5.852h-.146c-.641-1.712-2.605-1.964-4.22-1.964h-4.416v22.386h.008Zm29.237.017c0 2.946 0 4.415 2.508 6.233v.146h-9.545v-.146c2.402-1.225 2.061-4.415 2.061-6.729v-7.264l-8.149-13.109c-1.323-2.16-2.305-3.774-4.667-5.057h4.472c1.567 0 3.044.341 3.685 1.372l7.833 12.817 6.071-9.132c.836-1.226 1.965-3.588-.787-4.91v-.147h8.588l-12.078 18.166v7.76h.008Z"/></g></svg>